<?xml version="1.0" encoding="UTF-8" standalone="no"?>
<!-- Created with Inkscape (http://www.inkscape.org/) -->

<svg
   width="137.04504mm"
   height="112.97987mm"
   viewBox="0 0 137.04504 112.97987"
   version="1.1"
   id="svg1"
   xml:space="preserve"
   inkscape:version="1.4.2 (ebf0e940, 2025-05-08)"
   sodipodi:docname="enntity_logo_from_img.svg"
   xmlns:inkscape="http://www.inkscape.org/namespaces/inkscape"
   xmlns:sodipodi="http://sodipodi.sourceforge.net/DTD/sodipodi-0.dtd"
   xmlns="http://www.w3.org/2000/svg"
   xmlns:svg="http://www.w3.org/2000/svg"><sodipodi:namedview
     id="namedview1"
     pagecolor="#ffffff"
     bordercolor="#666666"
     borderopacity="1.0"
     inkscape:showpageshadow="2"
     inkscape:pageopacity="0.0"
     inkscape:pagecheckerboard="0"
     inkscape:deskcolor="#d1d1d1"
     inkscape:document-units="mm"
     inkscape:zoom="0.78216891"
     inkscape:cx="272.95894"
     inkscape:cy="343.91548"
     inkscape:window-width="2216"
     inkscape:window-height="1027"
     inkscape:window-x="1117"
     inkscape:window-y="25"
     inkscape:window-maximized="0"
     inkscape:current-layer="layer1" /><defs
     id="defs1" /><g
     inkscape:label="Layer 1"
     inkscape:groupmode="layer"
     id="layer1"
     transform="translate(-32.879745,-57.407269)"><path
       style="fill:#000000"
       d="m 32.879745,159.62706 v -10.75972 h 7.231944 7.231944 v 1.76389 1.76388 h -5.468055 -5.468056 v 2.64584 2.64583 h 4.7625 4.7625 v 1.76389 1.76389 h -4.7625 -4.7625 v 2.82222 2.82222 h 5.644444 5.644444 v 1.76389 1.76389 h -7.408332 -7.408333 z m 20.108332,-0.0184 V 148.8305 l 1.836279,0.10663 1.836279,0.10664 4.65717,6.52638 c 2.561443,3.58952 4.983781,6.92327 5.382973,7.40834 l 0.725804,0.88194 0.01269,-7.49653 0.01269,-7.49652 h 1.940278 1.940278 v 10.75972 10.75972 l -2.028473,-4.1e-4 -2.028472,-4.1e-4 -5.115277,-7.18211 -5.115277,-7.18211 -0.09535,7.18252 -0.09535,7.18252 h -1.93312 -1.93312 z m 24.341664,0.0184 v -10.75972 l 1.852083,0.0104 1.852084,0.0104 5.291666,7.45122 5.291666,7.45123 0.09521,-7.46168 0.09521,-7.46167 h 1.756873 1.756872 v 10.75972 10.75972 l -1.852083,-0.008 -1.852083,-0.008 -1.654672,-2.37367 c -0.910069,-1.30553 -3.211944,-4.53666 -5.115277,-7.1803 l -3.460606,-4.80663 -0.09535,7.18788 -0.09535,7.18787 h -1.93312 -1.933121 z m 29.633329,1.76389 v -8.99584 h -3.175 -3.175 v -1.76388 -1.76389 h 8.29028 8.29027 v 1.76389 1.76388 l -3.26319,-3e-4 -3.26319,-3.1e-4 0.10516,8.99614 0.10516,8.99614 h -1.95724 -1.95725 z m 15.16944,-1.76389 v -10.75972 h 1.76389 1.76389 v 10.75972 10.75972 h -1.76389 -1.76389 z m 15.16945,1.76389 v -8.99584 h -3.175 -3.175 v -1.76388 -1.76389 h 8.29027 8.29028 v 1.76389 1.76388 h -3.175 -3.175 v 8.99584 8.99583 h -1.94028 -1.94027 z m 21.16666,4.7961 v -4.19972 l -3.20407,-5.41347 c -1.76225,-2.97741 -3.52618,-5.93706 -3.91985,-6.57701 l -0.71577,-1.16354 2.36961,0.10521 c 2.36691,0.10509 2.37045,0.10681 3.12609,1.51642 0.41607,0.77618 1.53753,2.74115 2.49214,4.36662 1.47972,2.5196 1.79708,2.87139 2.1522,2.38573 0.2291,-0.31331 1.43243,-2.31646 2.67407,-4.45145 l 2.25752,-3.88179 2.22568,-0.003 c 1.69163,-0.003 2.16015,0.10246 1.95257,0.43762 -0.15022,0.24253 -1.90584,3.1321 -3.90138,6.42126 l -3.62825,5.9803 v 4.33845 4.33846 h -1.94028 -1.94028 z M 99.017303,133.72543 c -0.97469,-0.15608 -2.72094,-0.55499 -3.880557,-0.88647 -1.159617,-0.33148 -3.14027,-1.09485 -4.40145,-1.69638 -1.261181,-0.60153 -3.226032,-1.72102 -4.366336,-2.48776 -1.140304,-0.76674 -3.255604,-2.51717 -4.700666,-3.88983 -1.445062,-1.37267 -3.57796,-3.75727 -4.739773,-5.29911 -1.161813,-1.54184 -2.796718,-4.16946 -3.633121,-5.83914 -0.836404,-1.66968 -1.931466,-4.17886 -2.43347,-5.57594 -0.502004,-1.39708 -1.227197,-3.8577 -1.61154,-5.46805 -0.384343,-1.61035 -0.8903,-4.832905 -1.124349,-7.161235 -0.366265,-3.64362 -0.343279,-4.83529 0.165012,-8.55457 0.324805,-2.37669 1.047464,-5.66459 1.605908,-7.30647 0.558444,-1.64187 1.53649,-3.90419 2.173436,-5.02737 0.636946,-1.12318 1.743404,-2.8359 2.458797,-3.80603 0.715392,-0.97014 2.402799,-2.82224 3.749795,-4.11577 1.346995,-1.29354 3.70852,-3.1609 5.247833,-4.149702 1.539314,-0.988802 4.030252,-2.274452 5.535419,-2.857 1.505167,-0.582548 3.886417,-1.315264 5.291666,-1.628256 1.571516,-0.350026 4.184516,-0.569078 6.788333,-0.569078 2.6122,0 5.21693,0.219013 6.80184,0.571919 1.41267,0.314556 3.75963,1.034435 5.21545,1.599733 1.45582,0.565297 3.71312,1.66533 5.01622,2.444517 1.30309,0.779187 3.44201,2.306672 4.75315,3.394407 1.31114,1.08774 3.10594,2.88605 3.98843,3.99625 0.8825,1.11019 2.23028,3.05896 2.99507,4.33059 0.76479,1.27163 1.77825,3.30141 2.25214,4.51061 0.47388,1.20921 1.14488,3.42316 1.49109,4.91989 0.45648,1.97338 0.62094,4.07877 0.59838,7.66022 -0.0242,3.8493 -0.19572,5.54816 -0.77729,7.70063 -0.4104,1.518955 -1.17505,3.741455 -1.69922,4.938885 -0.52416,1.19743 -1.7685,3.44714 -2.76519,4.99936 -0.99669,1.55223 -2.72952,3.81243 -3.85074,5.02268 -1.12121,1.21026 -3.01444,2.93404 -4.20716,3.83062 -1.19273,0.89659 -3.09853,2.09959 -4.23511,2.67334 -1.13658,0.57374 -2.12552,0.98416 -2.19765,0.91204 -0.0721,-0.0721 0.0417,-0.75694 0.25286,-1.52181 0.21119,-0.76488 0.31136,-2.5022 0.2226,-3.86072 -0.10354,-1.5846 -0.43978,-3.01319 -0.938,-3.98524 -0.42713,-0.83336 -1.33564,-2.13399 -2.01892,-2.8903 -0.68328,-0.7563 -1.90671,-1.7637 -2.71875,-2.23866 -0.81203,-0.47496 -2.33868,-1.11901 -3.39254,-1.43123 -1.12463,-0.33318 -3.19605,-0.56766 -5.01475,-0.56766 -1.894847,0 -3.754427,0.21851 -4.786665,0.56246 -0.928413,0.30935 -2.461141,1.0525 -3.406062,1.65144 -0.944921,0.59895 -2.33001,1.8632 -3.077974,2.80944 -0.848844,1.07387 -1.63403,2.64081 -2.08926,4.16939 -0.401129,1.34691 -0.82641,2.44894 -0.945068,2.44894 -0.118659,0 -1.183499,-0.55777 -2.366312,-1.23948 -1.182812,-0.68172 -2.532495,-1.51126 -2.999294,-1.84343 -0.848451,-0.60374 -0.848576,-0.60365 -0.383898,0.26935 0.255656,0.4803 1.102863,1.7464 1.882683,2.81356 0.77982,1.06715 2.406625,2.89277 3.615122,4.05694 1.208497,1.16417 3.283217,2.76114 4.610487,3.54882 1.327271,0.78769 3.445095,1.85583 4.706275,2.37366 1.261179,0.51782 3.374469,1.18304 4.696196,1.47826 1.32172,0.29522 4.02047,0.53488 5.99722,0.53259 2.58761,-0.003 4.53263,-0.23782 6.9456,-0.83851 1.84334,-0.45888 4.44498,-1.33013 5.78144,-1.9361 1.33645,-0.60598 2.52204,-1.10178 2.63465,-1.10178 0.11261,0 -0.74278,0.96682 -1.90088,2.14849 -1.15809,1.18166 -2.97874,2.74144 -4.0459,3.46616 -1.06715,0.72473 -2.69528,1.67753 -3.61806,2.11734 -0.92278,0.4398 -2.51028,1.02361 -3.52778,1.29734 -1.01749,0.27374 -3.19936,0.56729 -4.8486,0.65235 -1.64924,0.0851 -3.796077,0.0269 -4.770767,-0.12914 z m 22.949967,-26.75045 c 0.88492,-1.11566 2.15853,-3.15907 2.83025,-4.5409 0.67171,-1.38184 1.5375,-3.748785 1.92397,-5.259895 0.49313,-1.9281 0.70269,-3.90753 0.70269,-6.63726 0,-2.40715 -0.21866,-4.77239 -0.57366,-6.20537 -0.31552,-1.27358 -1.02687,-3.32308 -1.58079,-4.55444 -0.55391,-1.23137 -1.72033,-3.23832 -2.59203,-4.4599 -0.8717,-1.22157 -2.52728,-3.07159 -3.67907,-4.11115 -1.15179,-1.03956 -2.97704,-2.42265 -4.0561,-3.07354 -1.07906,-0.65089 -2.95868,-1.58667 -4.17694,-2.07952 -1.21826,-0.49285 -3.08815,-1.105587 -4.1553,-1.36164 -1.06715,-0.256053 -3.47824,-0.471205 -5.35797,-0.478117 -1.879727,-0.0069 -4.499097,0.231831 -5.820828,0.530539 -1.321728,0.298707 -4.012585,1.335358 -5.979683,2.303678 -2.434678,1.19848 -4.319909,2.44173 -5.904916,3.8941 -1.280605,1.17344 -3.186009,3.43085 -4.234229,5.01646 -1.048221,1.58561 -2.319373,4.0414 -2.824783,5.4573 -0.50541,1.4159 -1.077355,3.97289 -1.270989,5.68221 -0.229706,2.02775 -0.233583,4.04232 -0.01116,5.79665 0.187499,1.47884 0.589801,3.44622 0.894004,4.37195 0.304204,0.92574 0.983885,2.52277 1.510403,3.548975 0.526518,1.0262 1.750047,2.8779 2.718953,4.11489 0.968906,1.23698 2.028176,2.41551 2.353934,2.61895 0.491576,0.307 0.744493,0.11017 1.487406,-1.15751 0.492315,-0.84007 1.813622,-2.36827 2.936239,-3.39599 1.122616,-1.02772 3.027747,-2.33121 4.233623,-2.89665 l 2.192502,-1.028055 -1.937913,-1.89201 c -1.124361,-1.09773 -2.310767,-2.70643 -2.826069,-3.832 -0.488486,-1.06699 -1.04308,-2.90198 -1.232432,-4.07774 -0.225897,-1.4027 -0.223387,-2.88841 0.0073,-4.32084 0.193366,-1.20069 0.750232,-2.9979 1.237481,-3.9938 0.487249,-0.9959 1.597347,-2.53236 2.466885,-3.41436 0.869538,-0.882 2.419575,-2.012 3.444528,-2.51113 1.024952,-0.49912 2.939504,-1.10415 4.254564,-1.34451 1.92623,-0.35206 2.85202,-0.34794 4.7625,0.0212 1.30432,0.252 3.29423,0.94266 4.42204,1.53481 1.1278,0.59215 2.73526,1.8382 3.57214,2.769 0.83687,0.93081 1.87571,2.44574 2.30853,3.36653 0.43282,0.92079 0.95156,2.66757 1.15276,3.88175 0.2636,1.59078 0.25188,2.77697 -0.0419,4.24546 -0.22426,1.12084 -0.83521,2.88436 -1.35766,3.91895 -0.52372,1.0371 -1.8542,2.71828 -2.96543,3.74708 l -2.01551,1.86601 2.65788,1.349065 c 1.63333,0.82904 3.4301,2.1213 4.66117,3.35237 1.10181,1.10181 2.39285,2.73761 2.86897,3.6351 0.47611,0.89749 0.98268,1.6318 1.1257,1.6318 0.14301,0 0.98406,-0.91281 1.86899,-2.02847 z M 104.35429,94.219185 c 0.79649,-0.36171 1.80777,-1.03291 2.2473,-1.49155 0.43952,-0.45865 1.09405,-1.4689 1.4545,-2.24501 0.36046,-0.77611 0.65537,-2.12549 0.65537,-2.99861 0,-0.87313 -0.32274,-2.29902 -0.7172,-3.16866 -0.39447,-0.86963 -0.98629,-1.87871 -1.31517,-2.2424 -0.32888,-0.36368 -1.18695,-0.96185 -1.90683,-1.32926 -0.85961,-0.43873 -2.04503,-0.66801 -3.45363,-0.66801 -1.432567,0 -2.593957,0.22915 -3.497457,0.69008 -0.74397,0.37955 -1.755883,1.16927 -2.248685,1.75493 -0.492802,0.58566 -1.08626,1.64132 -1.318795,2.34591 -0.232535,0.70458 -0.357265,2.18695 -0.277178,3.29414 0.108951,1.50624 0.407607,2.38497 1.186224,3.49024 0.62883,0.89264 1.731114,1.82623 2.785574,2.35927 1.11435,0.56331 2.325507,0.87929 3.351387,0.87434 0.88353,-0.004 2.2581,-0.30369 3.05459,-0.66541 z"
       id="path1" /></g></svg>
